<svg width="42" height="35" viewBox="0 0 42 35" fill="none" xmlns="http://www.w3.org/2000/svg">
<path d="M4.70648 9.7775C4.42093 9.22229 3.64934 8.96508 2.98308 9.20304C2.31682 9.44099 2.00817 10.084 2.29372 10.6392L4.70648 9.7775ZM15.8226 20.0342C16.218 19.528 16.0459 18.8504 15.4383 18.521C14.8308 18.1916 14.0177 18.3349 13.6224 18.8412L15.8226 20.0342ZM11.15 22.0077C10.7546 22.5139 10.9267 23.1915 11.5343 23.5209C12.1419 23.8503 12.9549 23.707 13.3502 23.2006L11.15 22.0077ZM39.7065 10.6392C39.992 10.084 39.6834 9.44099 39.017 9.20304C38.3508 8.96508 37.5792 9.22229 37.2936 9.7775L39.7065 10.6392ZM34.9471 19.1905C35.4596 19.6177 36.2905 19.6177 36.8031 19.1905C37.3157 18.7634 37.3157 18.0708 36.8031 17.6437L34.9471 19.1905ZM19.6876 24.0625C19.6876 24.6666 20.2752 25.1563 21.0001 25.1563C21.7249 25.1563 22.3126 24.6666 22.3126 24.0625H19.6876ZM28.65 23.2006C29.0454 23.707 29.8584 23.8503 30.4658 23.5209C31.0734 23.1915 31.2455 22.5139 30.8501 22.0077L28.65 23.2006ZM9.67817 17.003C10.1907 16.5759 10.1907 15.8833 9.67817 15.4562C9.16562 15.029 8.33458 15.029 7.82202 15.4562L9.67817 17.003ZM5.19702 17.6437C4.68446 18.0708 4.68446 18.7634 5.19702 19.1905C5.70958 19.6177 6.54062 19.6177 7.05317 19.1905L5.19702 17.6437ZM21.0001 19.3229C15.3583 19.3229 11.3074 16.9817 8.61815 14.5683C7.27388 13.3619 6.28828 12.1521 5.63963 11.244C5.31605 10.791 5.07837 10.4159 4.92355 10.1579C4.84618 10.0289 4.78965 9.92945 4.75357 9.86435C4.73554 9.83181 4.72263 9.80789 4.71479 9.79321C4.71087 9.78587 4.70786 9.78014 4.70648 9.7775C4.70644 9.77744 4.70653 9.77762 4.70648 9.7775C4.70665 9.77784 4.70648 9.7775 3.5001 10.2084C2.29372 10.6392 2.29345 10.6387 2.29372 10.6392C2.29382 10.6394 2.29459 10.6409 2.29482 10.6413C2.29526 10.6422 2.2958 10.6432 2.29641 10.6444C2.29762 10.6468 2.29918 10.6497 2.30105 10.6533C2.30481 10.6605 2.30989 10.6701 2.31627 10.6821C2.32905 10.706 2.34711 10.7394 2.37052 10.7816C2.41732 10.8661 2.48555 10.9859 2.57568 11.1361C2.7558 11.4364 3.02399 11.8588 3.384 12.3628C4.10253 13.3688 5.19506 14.7111 6.69455 16.0567C9.69277 18.7475 14.3919 21.5104 21.0001 21.5104V19.3229ZM26.797 18.4199C25.0988 18.977 23.1731 19.3229 21.0001 19.3229V21.5104C23.5169 21.5104 25.7681 21.1082 27.7584 20.4555L26.797 18.4199ZM13.6224 18.8412L11.15 22.0077L13.3502 23.2006L15.8226 20.0342L13.6224 18.8412ZM38.5001 10.2084C37.2936 9.7775 37.2935 9.77771 37.2936 9.7775C37.2938 9.77727 37.2945 9.77594 37.2945 9.7761C37.2943 9.77639 37.2938 9.77744 37.2928 9.77925C37.2908 9.78285 37.2873 9.78945 37.2823 9.79891C37.2721 9.81786 37.2557 9.84828 37.2327 9.88934C37.1867 9.97148 37.1151 10.096 37.0171 10.256C36.8211 10.5762 36.5208 11.0371 36.112 11.5839C35.2922 12.6805 34.0486 14.105 32.3518 15.4321L34.1484 17.0271C36.0541 15.5364 37.4356 13.9502 38.34 12.7407C38.7934 12.1343 39.1301 11.6183 39.3557 11.2498C39.4684 11.0655 39.5536 10.9177 39.6119 10.8137C39.6409 10.7616 39.6633 10.7205 39.6791 10.6911C39.6869 10.6764 39.6932 10.6647 39.6978 10.656C39.7001 10.6517 39.7018 10.6481 39.7034 10.6453C39.7041 10.6439 39.7046 10.6427 39.7051 10.6417C39.7055 10.6411 39.7064 10.6396 39.7065 10.6392C39.7065 10.6393 39.7067 10.639 39.7065 10.6392C39.7067 10.639 39.7065 10.6392 38.5001 10.2084ZM32.3518 15.4321C30.8486 16.6078 29.0044 17.6959 26.797 18.4199L27.7584 20.4555C30.3372 19.6096 32.4566 18.3502 34.1484 17.0271L32.3518 15.4321ZM32.3221 17.003L34.9471 19.1905L36.8031 17.6437L34.1781 15.4562L32.3221 17.003ZM19.6876 20.4167V24.0625H22.3126V20.4167H19.6876ZM26.1776 20.0342L28.65 23.2006L30.8501 22.0077L28.3777 18.8412L26.1776 20.0342ZM7.82202 15.4562L5.19702 17.6437L7.05317 19.1905L9.67817 17.003L7.82202 15.4562Z" fill="#1C274C"/>
<path d="M4.70648 9.7775C4.42093 9.22229 3.64934 8.96508 2.98308 9.20304C2.31682 9.44099 2.00817 10.084 2.29372 10.6392L4.70648 9.7775ZM15.8226 20.0342C16.218 19.528 16.0459 18.8504 15.4383 18.521C14.8308 18.1916 14.0177 18.3349 13.6224 18.8412L15.8226 20.0342ZM11.15 22.0077C10.7546 22.5139 10.9267 23.1915 11.5343 23.5209C12.1419 23.8503 12.9549 23.707 13.3502 23.2006L11.15 22.0077ZM39.7065 10.6392C39.992 10.084 39.6834 9.44099 39.017 9.20304C38.3508 8.96508 37.5792 9.22229 37.2936 9.7775L39.7065 10.6392ZM34.9471 19.1905C35.4596 19.6177 36.2905 19.6177 36.8031 19.1905C37.3157 18.7634 37.3157 18.0708 36.8031 17.6437L34.9471 19.1905ZM19.6876 24.0625C19.6876 24.6666 20.2752 25.1563 21.0001 25.1563C21.7249 25.1563 22.3126 24.6666 22.3126 24.0625H19.6876ZM28.65 23.2006C29.0454 23.707 29.8584 23.8503 30.4658 23.5209C31.0734 23.1915 31.2455 22.5139 30.8501 22.0077L28.65 23.2006ZM9.67817 17.003C10.1907 16.5759 10.1907 15.8833 9.67817 15.4562C9.16562 15.029 8.33458 15.029 7.82202 15.4562L9.67817 17.003ZM5.19702 17.6437C4.68446 18.0708 4.68446 18.7634 5.19702 19.1905C5.70958 19.6177 6.54062 19.6177 7.05317 19.1905L5.19702 17.6437ZM21.0001 19.3229C15.3583 19.3229 11.3074 16.9817 8.61815 14.5683C7.27388 13.3619 6.28828 12.1521 5.63963 11.244C5.31605 10.791 5.07837 10.4159 4.92355 10.1579C4.84618 10.0289 4.78965 9.92945 4.75357 9.86435C4.73554 9.83181 4.72263 9.80789 4.71479 9.79321C4.71087 9.78587 4.70786 9.78014 4.70648 9.7775C4.70644 9.77744 4.70653 9.77762 4.70648 9.7775C4.70665 9.77784 4.70648 9.7775 3.5001 10.2084C2.29372 10.6392 2.29345 10.6387 2.29372 10.6392C2.29382 10.6394 2.29459 10.6409 2.29482 10.6413C2.29526 10.6422 2.2958 10.6432 2.29641 10.6444C2.29762 10.6468 2.29918 10.6497 2.30105 10.6533C2.30481 10.6605 2.30989 10.6701 2.31627 10.6821C2.32905 10.706 2.34711 10.7394 2.37052 10.7816C2.41732 10.8661 2.48555 10.9859 2.57568 11.1361C2.7558 11.4364 3.02399 11.8588 3.384 12.3628C4.10253 13.3688 5.19506 14.7111 6.69455 16.0567C9.69277 18.7475 14.3919 21.5104 21.0001 21.5104V19.3229ZM26.797 18.4199C25.0988 18.977 23.1731 19.3229 21.0001 19.3229V21.5104C23.5169 21.5104 25.7681 21.1082 27.7584 20.4555L26.797 18.4199ZM13.6224 18.8412L11.15 22.0077L13.3502 23.2006L15.8226 20.0342L13.6224 18.8412ZM38.5001 10.2084C37.2936 9.7775 37.2935 9.77771 37.2936 9.7775C37.2938 9.77727 37.2945 9.77594 37.2945 9.7761C37.2943 9.77639 37.2938 9.77744 37.2928 9.77925C37.2908 9.78285 37.2873 9.78945 37.2823 9.79891C37.2721 9.81786 37.2557 9.84828 37.2327 9.88934C37.1867 9.97148 37.1151 10.096 37.0171 10.256C36.8211 10.5762 36.5208 11.0371 36.112 11.5839C35.2922 12.6805 34.0486 14.105 32.3518 15.4321L34.1484 17.0271C36.0541 15.5364 37.4356 13.9502 38.34 12.7407C38.7934 12.1343 39.1301 11.6183 39.3557 11.2498C39.4684 11.0655 39.5536 10.9177 39.6119 10.8137C39.6409 10.7616 39.6633 10.7205 39.6791 10.6911C39.6869 10.6764 39.6932 10.6647 39.6978 10.656C39.7001 10.6517 39.7018 10.6481 39.7034 10.6453C39.7041 10.6439 39.7046 10.6427 39.7051 10.6417C39.7055 10.6411 39.7064 10.6396 39.7065 10.6392C39.7065 10.6393 39.7067 10.639 39.7065 10.6392C39.7067 10.639 39.7065 10.6392 38.5001 10.2084ZM32.3518 15.4321C30.8486 16.6078 29.0044 17.6959 26.797 18.4199L27.7584 20.4555C30.3372 19.6096 32.4566 18.3502 34.1484 17.0271L32.3518 15.4321ZM32.3221 17.003L34.9471 19.1905L36.8031 17.6437L34.1781 15.4562L32.3221 17.003ZM19.6876 20.4167V24.0625H22.3126V20.4167H19.6876ZM26.1776 20.0342L28.65 23.2006L30.8501 22.0077L28.3777 18.8412L26.1776 20.0342ZM7.82202 15.4562L5.19702 17.6437L7.05317 19.1905L9.67817 17.003L7.82202 15.4562Z" fill="#1C274C"/>
<path d="M4.70648 9.7775C4.42093 9.22229 3.64934 8.96508 2.98308 9.20304C2.31682 9.44099 2.00817 10.084 2.29372 10.6392L4.70648 9.7775ZM15.8226 20.0342C16.218 19.528 16.0459 18.8504 15.4383 18.521C14.8308 18.1916 14.0177 18.3349 13.6224 18.8412L15.8226 20.0342ZM11.15 22.0077C10.7546 22.5139 10.9267 23.1915 11.5343 23.5209C12.1419 23.8503 12.9549 23.707 13.3502 23.2006L11.15 22.0077ZM39.7065 10.6392C39.992 10.084 39.6834 9.44099 39.017 9.20304C38.3508 8.96508 37.5792 9.22229 37.2936 9.7775L39.7065 10.6392ZM34.9471 19.1905C35.4596 19.6177 36.2905 19.6177 36.8031 19.1905C37.3157 18.7634 37.3157 18.0708 36.8031 17.6437L34.9471 19.1905ZM19.6876 24.0625C19.6876 24.6666 20.2752 25.1563 21.0001 25.1563C21.7249 25.1563 22.3126 24.6666 22.3126 24.0625H19.6876ZM28.65 23.2006C29.0454 23.707 29.8584 23.8503 30.4658 23.5209C31.0734 23.1915 31.2455 22.5139 30.8501 22.0077L28.65 23.2006ZM9.67817 17.003C10.1907 16.5759 10.1907 15.8833 9.67817 15.4562C9.16562 15.029 8.33458 15.029 7.82202 15.4562L9.67817 17.003ZM5.19702 17.6437C4.68446 18.0708 4.68446 18.7634 5.19702 19.1905C5.70958 19.6177 6.54062 19.6177 7.05317 19.1905L5.19702 17.6437ZM21.0001 19.3229C15.3583 19.3229 11.3074 16.9817 8.61815 14.5683C7.27388 13.3619 6.28828 12.1521 5.63963 11.244C5.31605 10.791 5.07837 10.4159 4.92355 10.1579C4.84618 10.0289 4.78965 9.92945 4.75357 9.86435C4.73554 9.83181 4.72263 9.80789 4.71479 9.79321C4.71087 9.78587 4.70786 9.78014 4.70648 9.7775C4.70644 9.77744 4.70653 9.77762 4.70648 9.7775C4.70665 9.77784 4.70648 9.7775 3.5001 10.2084C2.29372 10.6392 2.29345 10.6387 2.29372 10.6392C2.29382 10.6394 2.29459 10.6409 2.29482 10.6413C2.29526 10.6422 2.2958 10.6432 2.29641 10.6444C2.29762 10.6468 2.29918 10.6497 2.30105 10.6533C2.30481 10.6605 2.30989 10.6701 2.31627 10.6821C2.32905 10.706 2.34711 10.7394 2.37052 10.7816C2.41732 10.8661 2.48555 10.9859 2.57568 11.1361C2.7558 11.4364 3.02399 11.8588 3.384 12.3628C4.10253 13.3688 5.19506 14.7111 6.69455 16.0567C9.69277 18.7475 14.3919 21.5104 21.0001 21.5104V19.3229ZM26.797 18.4199C25.0988 18.977 23.1731 19.3229 21.0001 19.3229V21.5104C23.5169 21.5104 25.7681 21.1082 27.7584 20.4555L26.797 18.4199ZM13.6224 18.8412L11.15 22.0077L13.3502 23.2006L15.8226 20.0342L13.6224 18.8412ZM38.5001 10.2084C37.2936 9.7775 37.2935 9.77771 37.2936 9.7775C37.2938 9.77727 37.2945 9.77594 37.2945 9.7761C37.2943 9.77639 37.2938 9.77744 37.2928 9.77925C37.2908 9.78285 37.2873 9.78945 37.2823 9.79891C37.2721 9.81786 37.2557 9.84828 37.2327 9.88934C37.1867 9.97148 37.1151 10.096 37.0171 10.256C36.8211 10.5762 36.5208 11.0371 36.112 11.5839C35.2922 12.6805 34.0486 14.105 32.3518 15.4321L34.1484 17.0271C36.0541 15.5364 37.4356 13.9502 38.34 12.7407C38.7934 12.1343 39.1301 11.6183 39.3557 11.2498C39.4684 11.0655 39.5536 10.9177 39.6119 10.8137C39.6409 10.7616 39.6633 10.7205 39.6791 10.6911C39.6869 10.6764 39.6932 10.6647 39.6978 10.656C39.7001 10.6517 39.7018 10.6481 39.7034 10.6453C39.7041 10.6439 39.7046 10.6427 39.7051 10.6417C39.7055 10.6411 39.7064 10.6396 39.7065 10.6392C39.7065 10.6393 39.7067 10.639 39.7065 10.6392C39.7067 10.639 39.7065 10.6392 38.5001 10.2084ZM32.3518 15.4321C30.8486 16.6078 29.0044 17.6959 26.797 18.4199L27.7584 20.4555C30.3372 19.6096 32.4566 18.3502 34.1484 17.0271L32.3518 15.4321ZM32.3221 17.003L34.9471 19.1905L36.8031 17.6437L34.1781 15.4562L32.3221 17.003ZM19.6876 20.4167V24.0625H22.3126V20.4167H19.6876ZM26.1776 20.0342L28.65 23.2006L30.8501 22.0077L28.3777 18.8412L26.1776 20.0342ZM7.82202 15.4562L5.19702 17.6437L7.05317 19.1905L9.67817 17.003L7.82202 15.4562Z" fill="#1C274C"/>
<path d="M4.70648 9.7775C4.42093 9.22229 3.64934 8.96508 2.98308 9.20304C2.31682 9.44099 2.00817 10.084 2.29372 10.6392L4.70648 9.7775ZM15.8226 20.0342C16.218 19.528 16.0459 18.8504 15.4383 18.521C14.8308 18.1916 14.0177 18.3349 13.6224 18.8412L15.8226 20.0342ZM11.15 22.0077C10.7546 22.5139 10.9267 23.1915 11.5343 23.5209C12.1419 23.8503 12.9549 23.707 13.3502 23.2006L11.15 22.0077ZM39.7065 10.6392C39.992 10.084 39.6834 9.44099 39.017 9.20304C38.3508 8.96508 37.5792 9.22229 37.2936 9.7775L39.7065 10.6392ZM34.9471 19.1905C35.4596 19.6177 36.2905 19.6177 36.8031 19.1905C37.3157 18.7634 37.3157 18.0708 36.8031 17.6437L34.9471 19.1905ZM19.6876 24.0625C19.6876 24.6666 20.2752 25.1563 21.0001 25.1563C21.7249 25.1563 22.3126 24.6666 22.3126 24.0625H19.6876ZM28.65 23.2006C29.0454 23.707 29.8584 23.8503 30.4658 23.5209C31.0734 23.1915 31.2455 22.5139 30.8501 22.0077L28.65 23.2006ZM9.67817 17.003C10.1907 16.5759 10.1907 15.8833 9.67817 15.4562C9.16562 15.029 8.33458 15.029 7.82202 15.4562L9.67817 17.003ZM5.19702 17.6437C4.68446 18.0708 4.68446 18.7634 5.19702 19.1905C5.70958 19.6177 6.54062 19.6177 7.05317 19.1905L5.19702 17.6437ZM21.0001 19.3229C15.3583 19.3229 11.3074 16.9817 8.61815 14.5683C7.27388 13.3619 6.28828 12.1521 5.63963 11.244C5.31605 10.791 5.07837 10.4159 4.92355 10.1579C4.84618 10.0289 4.78965 9.92945 4.75357 9.86435C4.73554 9.83181 4.72263 9.80789 4.71479 9.79321C4.71087 9.78587 4.70786 9.78014 4.70648 9.7775C4.70644 9.77744 4.70653 9.77762 4.70648 9.7775C4.70665 9.77784 4.70648 9.7775 3.5001 10.2084C2.29372 10.6392 2.29345 10.6387 2.29372 10.6392C2.29382 10.6394 2.29459 10.6409 2.29482 10.6413C2.29526 10.6422 2.2958 10.6432 2.29641 10.6444C2.29762 10.6468 2.29918 10.6497 2.30105 10.6533C2.30481 10.6605 2.30989 10.6701 2.31627 10.6821C2.32905 10.706 2.34711 10.7394 2.37052 10.7816C2.41732 10.8661 2.48555 10.9859 2.57568 11.1361C2.7558 11.4364 3.02399 11.8588 3.384 12.3628C4.10253 13.3688 5.19506 14.7111 6.69455 16.0567C9.69277 18.7475 14.3919 21.5104 21.0001 21.5104V19.3229ZM26.797 18.4199C25.0988 18.977 23.1731 19.3229 21.0001 19.3229V21.5104C23.5169 21.5104 25.7681 21.1082 27.7584 20.4555L26.797 18.4199ZM13.6224 18.8412L11.15 22.0077L13.3502 23.2006L15.8226 20.0342L13.6224 18.8412ZM38.5001 10.2084C37.2936 9.7775 37.2935 9.77771 37.2936 9.7775C37.2938 9.77727 37.2945 9.77594 37.2945 9.7761C37.2943 9.77639 37.2938 9.77744 37.2928 9.77925C37.2908 9.78285 37.2873 9.78945 37.2823 9.79891C37.2721 9.81786 37.2557 9.84828 37.2327 9.88934C37.1867 9.97148 37.1151 10.096 37.0171 10.256C36.8211 10.5762 36.5208 11.0371 36.112 11.5839C35.2922 12.6805 34.0486 14.105 32.3518 15.4321L34.1484 17.0271C36.0541 15.5364 37.4356 13.9502 38.34 12.7407C38.7934 12.1343 39.1301 11.6183 39.3557 11.2498C39.4684 11.0655 39.5536 10.9177 39.6119 10.8137C39.6409 10.7616 39.6633 10.7205 39.6791 10.6911C39.6869 10.6764 39.6932 10.6647 39.6978 10.656C39.7001 10.6517 39.7018 10.6481 39.7034 10.6453C39.7041 10.6439 39.7046 10.6427 39.7051 10.6417C39.7055 10.6411 39.7064 10.6396 39.7065 10.6392C39.7065 10.6393 39.7067 10.639 39.7065 10.6392C39.7067 10.639 39.7065 10.6392 38.5001 10.2084ZM32.3518 15.4321C30.8486 16.6078 29.0044 17.6959 26.797 18.4199L27.7584 20.4555C30.3372 19.6096 32.4566 18.3502 34.1484 17.0271L32.3518 15.4321ZM32.3221 17.003L34.9471 19.1905L36.8031 17.6437L34.1781 15.4562L32.3221 17.003ZM19.6876 20.4167V24.0625H22.3126V20.4167H19.6876ZM26.1776 20.0342L28.65 23.2006L30.8501 22.0077L28.3777 18.8412L26.1776 20.0342ZM7.82202 15.4562L5.19702 17.6437L7.05317 19.1905L9.67817 17.003L7.82202 15.4562Z" fill="#1C274C"/>
</svg>
