<svg width="38" height="34" viewBox="0 0 38 34" fill="none" xmlns="http://www.w3.org/2000/svg">
<g clip-path="url(#clip0_123_322)">
<path d="M37.8301 16.2116C37.6122 15.7218 32.3284 4.25 18.9993 4.25C5.67022 4.25 0.386436 15.7218 0.168529 16.2116C-0.0565019 16.7179 -0.0565019 17.2826 0.168529 17.7889C0.386436 18.2782 5.67022 29.75 18.9993 29.75C32.3284 29.75 37.6122 18.2782 37.8301 17.7884C38.0551 17.2821 38.0551 16.7179 37.8301 16.2116ZM18.9993 21.25C16.3761 21.25 14.2493 19.3471 14.2493 17C14.2493 14.6529 16.3761 12.75 18.9993 12.75C21.6225 12.75 23.7493 14.6529 23.7493 17C23.7493 19.3471 21.6225 21.25 18.9993 21.25Z" fill="#231F20"/>
</g>
<defs>
<clipPath id="clip0_123_322">
<rect width="38" height="34" fill="white"/>
</clipPath>
</defs>
</svg>
